<?xml version="1.0" encoding="UTF-8"?>
<!DOCTYPE svg PUBLIC "-//W3C//DTD SVG 1.1//EN" "http://www.w3.org/Graphics/SVG/1.1/DTD/svg11.dtd">
<!-- Creator: CorelDRAW -->
<svg xmlns="http://www.w3.org/2000/svg" xml:space="preserve" width="1.70666in" height="1.70666in" version="1.1" style="shape-rendering:geometricPrecision; text-rendering:geometricPrecision; image-rendering:optimizeQuality; fill-rule:evenodd; clip-rule:evenodd"
viewBox="0 0 1707 1707"
 xmlns:xlink="http://www.w3.org/1999/xlink">
 <defs>
  <style type="text/css">
   <![CDATA[
    .fil0 {fill:white;fill-rule:nonzero}
   ]]>
  </style>
 </defs>
 <g id="Layer_x0020_1">
  <metadata id="CorelCorpID_0Corel-Layer"/>
  <g id="_466582368">
   <g>
    <path class="fil0" d="M1585 1323c-14,0 -25,-11 -25,-24l0 -946 -82 0c-14,0 -25,-11 -25,-25 0,-14 11,-25 25,-25l106 0c13,0 24,11 24,25l0 971c2,13 -9,24 -23,24zm-1465 0c-13,0 -25,-11 -25,-24l0 -971c0,-14 12,-25 25,-25l106 0c14,0 25,11 25,25 0,14 -11,25 -25,25l-82 0 0 947c0,12 -11,23 -24,23zm867 -970l-267 0c-14,0 -25,-11 -25,-25 0,-14 11,-25 25,-25l269 0c13,0 25,11 25,25 0,14 -13,25 -27,25z"/>
   </g>
   <g>
    <path class="fil0" d="M1682 1580l-1657 0c-14,0 -25,-11 -25,-25l0 -255c0,-14 11,-25 25,-25l1657 0c14,0 25,11 25,25l0 255c-1,14 -13,25 -25,25zm-1634 -48l1609 0 0 -209 -1609 0 0 209z"/>
   </g>
   <g>
    <path class="fil0" d="M1111 1452l-516 0c-14,0 -25,-11 -25,-25l0 -128c0,-14 11,-25 25,-25 14,0 25,11 25,25l0 104 466 0 0 -104c0,-14 11,-25 25,-25 13,0 25,11 25,25l0 128c-2,14 -13,25 -25,25z"/>
   </g>
   <g>
    <path class="fil0" d="M248 1416c-14,0 -25,-11 -25,-25l0 -91c0,-14 11,-25 25,-25 14,0 25,11 25,25l0 91c-1,14 -13,25 -25,25z"/>
   </g>
   <g>
    <path class="fil0" d="M374 1470c-14,0 -25,-11 -25,-24l0 -146c0,-14 11,-25 25,-25 14,0 25,11 25,25l0 147c-1,12 -12,23 -25,23z"/>
   </g>
   <g>
    <path class="fil0" d="M1459 1416c-14,0 -25,-11 -25,-25l0 -91c0,-14 11,-25 25,-25 14,0 25,11 25,25l0 91c-2,14 -11,25 -25,25z"/>
   </g>
   <g>
    <path class="fil0" d="M1332 1470c-13,0 -24,-11 -24,-24l0 -146c0,-14 11,-25 24,-25 14,0 25,11 25,25l0 147c0,12 -11,23 -25,23z"/>
   </g>
   <g>
    <path class="fil0" d="M846 963c-67,0 -121,-54 -121,-121 0,-66 54,-120 121,-120 66,0 120,54 120,120 0,67 -54,121 -120,121zm0 -193c-41,0 -72,32 -72,72 0,40 31,72 72,72 40,0 72,-32 72,-72 0,-40 -32,-72 -72,-72z"/>
   </g>
   <g>
    <path class="fil0" d="M1065 1204l-425 0c-13,0 -25,-11 -25,-25l0 -91c0,-64 53,-117 117,-117l33 0c10,0 18,6 22,14 13,25 38,42 66,42 27,0 54,-16 66,-42 4,-8 13,-14 22,-14l34 0c63,0 115,53 115,117l0 91c0,14 -11,25 -25,25zm-401 -48l377 0 0 -67c0,-37 -30,-68 -66,-68l-20 0c-22,35 -59,56 -102,56 -42,0 -79,-21 -102,-56l-19 0c-37,0 -68,31 -68,68l0 67z"/>
   </g>
   <g>
    <path class="fil0" d="M473 697c-157,0 -285,-128 -285,-285 0,-158 128,-285 285,-285 156,0 284,127 284,284 -1,157 -128,286 -284,286zm0 -522c-131,0 -236,106 -236,236 0,130 105,236 236,236 130,0 235,-106 235,-236 -1,-129 -106,-236 -235,-236z"/>
   </g>
   <g>
    <path class="fil0" d="M677 597c-7,0 -14,-3 -20,-10 -44,-57 -111,-89 -184,-89 -74,0 -140,32 -185,89 -8,11 -23,13 -34,4 -12,-8 -13,-23 -5,-34 53,-70 135,-109 224,-109 88,0 169,39 223,109 8,11 5,26 -4,34 -6,4 -11,6 -15,6z"/>
   </g>
   <g>
    <path class="fil0" d="M473 426c-60,0 -110,-50 -110,-109 0,-60 49,-110 110,-110 61,0 109,49 109,110 0,61 -48,109 -109,109zm0 -170c-34,0 -61,27 -61,61 0,34 26,61 61,61 33,0 61,-28 61,-61 0,-34 -28,-61 -61,-61z"/>
   </g>
   <g>
    <path class="fil0" d="M1234 697c-157,0 -284,-128 -284,-285 0,-158 127,-285 284,-285 157,0 284,127 284,284 0,157 -127,286 -284,286zm0 -522c-130,0 -236,106 -236,236 0,130 106,236 236,236 130,0 236,-106 236,-236 0,-129 -106,-236 -236,-236z"/>
   </g>
   <g>
    <path class="fil0" d="M1438 597c-7,0 -14,-3 -20,-10 -44,-57 -112,-90 -184,-90 -73,0 -141,33 -186,90 -8,11 -23,13 -34,4 -12,-8 -13,-23 -5,-34 54,-70 136,-109 224,-109 87,0 169,39 223,109 8,11 7,26 -4,34 -4,4 -9,6 -14,6z"/>
   </g>
   <g>
    <path class="fil0" d="M1234 426c-62,0 -110,-48 -110,-109 0,-60 50,-110 110,-110 60,0 110,49 110,110 0,61 -50,109 -110,109zm0 -170c-35,0 -61,26 -61,61 0,34 28,61 61,61 35,0 61,-28 61,-61 0,-34 -28,-61 -61,-61z"/>
   </g>
   <g>
    <path class="fil0" d="M675 1042c-8,0 -17,-4 -21,-13l-202 -345c-7,-11 -3,-26 8,-33 11,-7 27,-3 33,8l203 345c7,12 3,27 -8,34 -5,3 -9,4 -13,4z"/>
   </g>
   <g>
    <path class="fil0" d="M1034 1045c-4,0 -8,-2 -12,-3 -11,-7 -15,-21 -8,-33l199 -348c7,-12 21,-16 34,-9 11,7 15,22 8,34l-200 346c-4,9 -12,13 -21,13z"/>
   </g>
  </g>
 </g>
</svg>
