<?xml version="1.0" encoding="UTF-8" standalone="no"?> <svg width="512" height="512" viewBox="0 0 512 512" fill="none" xmlns="http://www.w3.org/2000/svg">
<path d="M256 512C156.01 512 74.667 430.657 74.667 330.667C74.667 230.677 156.01 149.335 256 149.335C355.99 149.335 437.333 230.678 437.333 330.668C437.333 430.658 355.99 512 256 512ZM256 192C179.542 192 117.333 254.2 117.333 330.667C117.333 407.134 179.542 469.335 256 469.335C332.458 469.335 394.667 407.135 394.667 330.668C394.667 254.201 332.458 192 256 192Z" fill="white"/>
<path d="M330.667 352H256C250.342 352 244.916 349.752 240.916 345.751C236.915 341.751 234.667 336.325 234.667 330.667V234.667C234.667 229.009 236.915 223.583 240.915 219.582C244.916 215.582 250.342 213.334 256 213.334C261.658 213.334 267.084 215.582 271.085 219.582C275.085 223.583 277.333 229.009 277.333 234.667V309.334H330.667C336.325 309.334 341.751 311.582 345.752 315.582C349.752 319.583 352 325.009 352 330.667C352 336.325 349.752 341.751 345.752 345.752C341.751 349.752 336.325 352 330.667 352V352Z" fill="white"/>
<path d="M405.333 192C399.675 192 394.25 189.752 390.249 185.752C386.248 181.751 384.001 176.326 384 170.668C384 142.033 372.51 116.934 361.76 99.736C353.451 110.351 343.295 119.381 331.781 126.392C329.193 127.846 326.33 128.743 323.375 129.027C320.421 129.311 317.439 128.976 314.621 128.042C311.804 127.108 309.212 125.596 307.012 123.604C304.812 121.611 303.052 119.182 301.844 116.47C288.844 87.262 273.667 67.439 262.188 55.204C236.427 94.897 195.656 123.804 193.594 125.257C189.136 128.387 183.65 129.694 178.259 128.908C172.869 128.123 167.983 125.305 164.604 121.033C159.633 114.765 155.348 107.982 151.823 100.8C136.323 122.965 128 152.355 128 170.668C127.961 176.301 125.697 181.69 121.7 185.659C117.704 189.628 112.299 191.856 106.667 191.856C101.034 191.856 95.6294 189.628 91.6328 185.659C87.6362 181.69 85.3716 176.301 85.333 170.668C85.333 134.783 105.792 71.319 151.271 42.595C154.498 40.5558 158.213 39.4199 162.029 39.3056C165.844 39.1914 169.62 40.103 172.964 41.9455C176.307 43.7879 179.094 46.4936 181.036 49.7804C182.977 53.0673 184.001 56.8147 184 60.632C184.383 65.7601 185.521 70.8036 187.375 75.6C203.656 61.324 226.365 38.251 236.167 13.485C237.321 10.568 239.105 7.94142 241.39 5.79249C243.676 3.64357 246.407 2.02515 249.39 1.05254C252.373 0.0799289 255.533 -0.222929 258.646 0.165541C261.759 0.554011 264.748 1.62425 267.4 3.3C268.91 4.253 300.046 24.337 328.025 73.7C332.616 68.0317 336.078 61.5363 338.225 54.565C339.28 51.0125 341.241 47.7959 343.917 45.2322C346.593 42.6685 349.891 40.8461 353.485 39.9445C357.08 39.043 360.847 39.0933 364.416 40.0906C367.985 41.0879 371.233 42.9977 373.839 45.632C375.996 47.815 426.673 99.841 426.673 170.674C426.671 176.332 424.421 181.757 420.419 185.756C416.417 189.756 410.991 192.002 405.333 192V192Z" fill="white"/>
</svg>
